# xmcd CD database file
#
# Track frame offsets:
#	150
#	12368
#	25680
#	34420
#	46237
#	66596
#	77360
#	89398
#	101993
#	121632
#	155048
#	165636
#	179256
#	190581
#
# Disc length: 2881 seconds
#
# Revision: 0
# Processed by: cddbd v1.5.2PL0 Copyright (c) Steve Scherf et al.
# Submitted via: CDex 1.71
#
DISCID=ad0b3f0e
DTITLE=Diverse - Blues On The Loose
DYEAR=2002
DGENRE=Blues
TTITLE0=John Lee Hooker - I'm In The Mood
TTITLE1=Muddy Waters - Baby Please Don't Go
TTITLE2=Lowell Fulson - You Don't Know
TTITLE3=Otis Rush - All Your Love (I Miss Loving)
TTITLE4=Brownie McGhee - Walk On
TTITLE5=Junior Parker - Mystery Train
TTITLE6=Jimmy reed - Honest I Do
TTITLE7=Elmore James - The Sky Is Crying
TTITLE8=Albert King - Cadillac Assembly
TTITLE9=B.B. King - Ain't Nobody Home
TTITLE10=Lightnin' Hopkins - Coffee House Blues
TTITLE11=T-Bone Walker - Call It Stormy Monday
TTITLE12=Robert Johnson - Cross Road Blues
TTITLE13=Junior Wells - I Got My Mojo Working
EXTD=YEAR: 2002
EXTT0=
EXTT1=
EXTT2=
EXTT3=
EXTT4=
EXTT5=
EXTT6=
EXTT7=
EXTT8=
EXTT9=
EXTT10=
EXTT11=
EXTT12=
EXTT13=
PLAYORDER=
